<?xml version="1.0" encoding="UTF-8"?>
<svg xmlns="http://www.w3.org/2000/svg" id="Artwork" version="1.1" viewBox="0 0 1249.7 170.1">
  <defs>
    <style>
      .st0 {
        fill: #e6f7f9;
      }
    </style>
  </defs>
  <path class="st0" d="M230.1,10.7c9,0,13.4,6.2,15.2,12.4l8.5-3.2c-3.4-10.2-12.4-17.5-23.7-17.5s-26.8,12.6-26.8,32,10.8,31.8,26.5,31.8,20.8-7.9,23.9-18.4l-8.1-2.9c-2.1,7.7-7.2,13.1-15.5,13.1s-17.5-9.2-17.5-23.9,7.4-23.4,17.5-23.4h0Z"></path>
  <polygon class="st0" points="314.4 56.9 278.3 56.9 278.3 36.3 301.2 36.3 301.2 28.2 278.3 28.2 278.3 11.6 312.4 11.6 312.4 3.7 269.4 3.7 269.4 65 314.4 65 314.4 56.9"></polygon>
  <polygon class="st0" points="338.7 10.8 364.2 65 374.1 65 374.1 3.7 365.8 3.7 365.8 51.3 344.5 3.7 330.3 3.7 330.3 65 338.7 65 338.7 10.8"></polygon>
  <polygon class="st0" points="389.5 11.9 409.8 11.9 409.8 65 418.8 65 418.8 11.9 439.1 11.9 439.1 3.7 389.5 3.7 389.5 11.9"></polygon>
  <polygon class="st0" points="500.7 56.9 464.6 56.9 464.6 36.3 487.6 36.3 487.6 28.2 464.6 28.2 464.6 11.6 498.8 11.6 498.8 3.7 455.7 3.7 455.7 65 500.7 65 500.7 56.9"></polygon>
  <path class="st0" d="M549,35.3c7.8-1.9,12.4-7.4,12.4-14.8s-7.6-16.8-19.7-16.8h-24.7v61.3h8.9v-25.7h13.1c9.2,0,10.8,4.7,12.2,13l2.2,12.7h9.5l-2.5-13.2c-1.8-9.4-3.8-15-11.5-16.5h0ZM539.5,31.1h-13.6V11.6h14.2c7.1,0,12.3,2.6,12.3,9.3s-4.3,10.3-12.9,10.3h0Z"></path>
  <polygon class="st0" points="666.3 29.1 641.2 29.1 641.2 11.6 674.6 11.6 674.6 3.7 632.3 3.7 632.3 65 641.2 65 641.2 37.1 666.3 37.1 666.3 29.1"></polygon>
  <path class="st0" d="M738.8,34.3c0-18.7-10.5-31.9-25.3-31.9s-25.3,13.2-25.3,31.9,10.5,31.9,25.3,31.9,25.3-13.2,25.3-31.9ZM713.4,58.1c-10.1,0-16-8.9-16-23.8s6-23.6,16-23.6,16,8.8,16,23.6-6,23.8-16,23.8Z"></path>
  <path class="st0" d="M788.2,52.3l2.2,12.7h9.5l-2.5-13.2c-1.7-9.4-3.8-15-11.5-16.5,7.8-1.9,12.4-7.4,12.4-14.8s-7.6-16.8-19.7-16.8h-24.7v61.3h8.9v-25.7h13.1c9.2,0,10.8,4.7,12.2,13h0ZM762.9,31.1V11.6h14.2c7.1,0,12.3,2.6,12.3,9.3s-4.3,10.3-12.9,10.3h-13.6Z"></path>
  <polygon class="st0" points="902.9 65 911.2 65 911.2 3.7 897.7 3.7 888.5 35.9 878.7 3.7 865.3 3.7 865.3 65 873.5 65 873.5 10.5 884.3 46.9 892 46.9 902.9 10.3 902.9 65"></polygon>
  <polygon class="st0" points="971.8 57.5 954.9 57.5 954.9 11.2 971.8 11.2 971.8 3.7 929 3.7 929 11.2 946 11.2 946 57.5 929 57.5 929 65 971.8 65 971.8 57.5"></polygon>
  <polygon class="st0" points="999 10.8 1024.6 65 1034.5 65 1034.5 3.7 1026.1 3.7 1026.1 51.3 1004.8 3.7 990.6 3.7 990.6 65 999 65 999 10.8"></polygon>
  <path class="st0" d="M1099.9,33.6c0-18.1-10.3-29.9-26.1-29.9h-21v61.3h19.7c16.6,0,27.4-12.4,27.4-31.4h0ZM1071.1,56.9h-9.4V11.6h11.1c11.5,0,17.9,7.4,17.9,22.2s-7.9,23.1-19.6,23.1Z"></path>
  <path class="st0" d="M1119.6,65h7.1v1.1c0,5-2.9,7.1-7.1,7.4v4.7c9.7-.4,12.4-5.9,12.4-13.5v-12.2h-12.4v12.4h0Z"></path>
  <polygon class="st0" points="216.1 128.1 239.1 128.1 239.1 120.1 216.1 120.1 216.1 103.4 250.3 103.4 250.3 95.5 207.2 95.5 207.2 156.9 252.2 156.9 252.2 148.8 216.1 148.8 216.1 128.1"></polygon>
  <polygon class="st0" points="265.3 103.8 285.6 103.8 285.6 156.9 294.6 156.9 294.6 103.8 314.9 103.8 314.9 95.5 265.3 95.5 265.3 103.8"></polygon>
  <polygon class="st0" points="365.7 121.3 338.7 121.3 338.7 95.5 329.8 95.5 329.8 156.9 338.7 156.9 338.7 129.5 365.7 129.5 365.7 156.9 374.6 156.9 374.6 95.5 365.7 95.5 365.7 121.3"></polygon>
  <polygon class="st0" points="392.9 103.1 409.8 103.1 409.8 149.3 392.9 149.3 392.9 156.9 435.8 156.9 435.8 149.3 418.8 149.3 418.8 103.1 435.8 103.1 435.8 95.5 392.9 95.5 392.9 103.1"></polygon>
  <path class="st0" d="M478.6,102.6c9,0,13.4,6.2,15.2,12.4l8.5-3.2c-3.4-10.2-12.4-17.5-23.7-17.5s-26.8,12.6-26.8,32,10.8,31.8,26.5,31.8,20.8-7.9,23.9-18.4l-8.1-2.9c-2.1,7.7-7.2,13.1-15.5,13.1s-17.5-9.2-17.5-23.9,7.4-23.4,17.5-23.4h0Z"></path>
  <path class="st0" d="M543.9,121.5l-10.4-2.4c-6-1.4-9.2-3.9-9.2-8.3s3.9-8.2,12.1-8.3c8.1,0,14.4,2.7,20.7,7l3.4-7.6c-6.7-4.3-13.7-7.5-23.6-7.5s-21.6,7-21.6,17.3,6.8,13.9,16.4,16.2l10.9,2.6c6.6,1.6,9.9,4.3,9.9,9.4s-5.9,10.2-12.9,10.2-17.2-4.7-22.8-10.2l-4.9,7.2c5,4.8,14.1,11.1,27.6,11.1s22.2-6.8,22.2-19.4-7.1-14.8-17.8-17.3h0Z"></path>
  <path class="st0" d="M583.6,156.9h7.1v1.1c0,5-2.9,7.1-7.1,7.4v4.7c9.7-.4,12.4-5.9,12.4-13.5v-12.2h-12.4v12.4h0Z"></path>
  <path class="st0" d="M669.5,95.5l-19.4,61.3h8.9l4.7-15.5h23.7l4.5,15.5h9.5l-18.7-61.3h-13.3,0ZM666.2,133.5l9.7-32.1,9.3,32.1h-19Z"></path>
  <polygon class="st0" points="751.6 143.1 730.2 95.5 716 95.5 716 156.9 724.5 156.9 724.5 102.6 750 156.9 759.9 156.9 759.9 95.5 751.6 95.5 751.6 143.1"></polygon>
  <path class="st0" d="M799.3,95.5h-21v61.3h19.7c16.6,0,27.4-12.4,27.4-31.4s-10.3-29.9-26.1-29.9h0ZM796.6,148.8h-9.4v-45.4h11.1c11.5,0,17.9,7.4,17.9,22.2s-7.9,23.1-19.6,23.1h0Z"></path>
  <path class="st0" d="M918.2,95.5h-24.8v61.3h8.9v-25h14.6c12.3,0,20.7-7.4,20.7-18.4s-7.9-18-19.4-18h0ZM915.3,123.8h-13v-20.4h14c7.9,0,12.1,3.8,12.1,10.1s-4.6,10.3-13.1,10.3Z"></path>
  <path class="st0" d="M974.8,94.3c-14.8,0-25.3,13.2-25.3,31.9s10.5,31.9,25.3,31.9,25.3-13.2,25.3-31.9-10.5-31.9-25.3-31.9ZM974.8,149.9c-10.1,0-16-8.9-16-23.8s6-23.6,16-23.6,16,8.8,16,23.6-6,23.8-16,23.8Z"></path>
  <polygon class="st0" points="1027.5 95.5 1018.6 95.5 1018.6 156.9 1059 156.9 1059 148.6 1027.5 148.6 1027.5 95.5"></polygon>
  <polygon class="st0" points="1077.7 103.1 1094.7 103.1 1094.7 149.3 1077.7 149.3 1077.7 156.9 1120.6 156.9 1120.6 149.3 1103.6 149.3 1103.6 103.1 1120.6 103.1 1120.6 95.5 1077.7 95.5 1077.7 103.1"></polygon>
  <path class="st0" d="M1163.4,102.6c9,0,13.4,6.2,15.2,12.4l8.5-3.2c-3.4-10.2-12.4-17.5-23.7-17.5s-26.8,12.6-26.8,32,10.8,31.8,26.5,31.8,20.8-7.9,23.9-18.4l-8.1-2.9c-2.1,7.7-7.2,13.1-15.5,13.1s-17.5-9.2-17.5-23.9,7.4-23.4,17.5-23.4h0Z"></path>
  <polygon class="st0" points="1240.1 95.5 1223.5 125.6 1207.1 95.5 1197.1 95.5 1218.9 133.8 1218.9 156.9 1227.8 156.9 1227.8 133.8 1249.7 95.5 1240.1 95.5"></polygon>
  <path class="st0" d="M71.8,36.9v-9.2c-25.7,4.3-45.3,26.7-45.3,53.6s19.6,49.2,45.3,53.6v-9.2c-20.7-4.2-36.3-22.5-36.3-44.4s15.6-40.2,36.3-44.4Z"></path>
  <path class="st0" d="M80.8,0C38.9,0,4.3,31.9,0,72.8h9.1C13.3,36.9,43.9,9,80.8,9s67.5,27.9,71.7,63.7h9.1C157.4,31.9,122.7,0,80.8,0h0Z"></path>
  <path class="st0" d="M89.9,125.7v9.2c25.7-4.3,45.3-26.7,45.3-53.6s-19.6-49.2-45.3-53.6v9.2c20.7,4.2,36.3,22.5,36.3,44.4s-15.6,40.2-36.3,44.4h0Z"></path>
  <path class="st0" d="M80.8,153.5c-36.6,0-66.9-27.4-71.6-62.7H0c4.7,40.4,39.1,71.8,80.7,71.8s76-31.4,80.7-71.8h-9.1c-4.7,35.4-35,62.7-71.6,62.7Z"></path>
</svg>
